{"title":"Marvels.Daredevil.S02E01.WEBRip.x264-FLEET","uid":13910860,"size":334049050,"categoryP":"video","categoryS":"tv_shows","magnet":"?xt=urn:btih:2156b84554275b4b1e2282e74cfeb6387d4f3e57&amp;dn=Marvels.Daredevil.S02E01.WEBRip.x264-FLEET&amp;tr=udp%3A%2F%2Ftracker.leechers-paradise.org%3A6969&amp;tr=udp%3A%2F%2Fzer0day.ch%3A1337&amp;tr=udp%3A%2F%2Fopen.demonii.com%3A1337&amp;tr=udp%3A%2F%2Ftracker.coppersurfer.tk%3A6969&amp;tr=udp%3A%2F%2Fexodus.desync.com%3A6969","seeders":22,"leechers":0,"uploader":"makintos13","files":3,"time":1458300092,"description":"Marvels.Daredevil.S02E01.WEBRip.x264-FLEET\r\n\r\nScreens:\r\n \nhttp://imgmak.com/Kqu\r\n\r\nCover:\r\n \nhttp://imgmak.com/Kqm\r\n\r\n:::::::::::::\r\n\r\nVideo\r\nID : 1\r\nFormat : AVC\r\nFormat/Info : Advanced Video Codec\r\nFormat profile :   \r\nFormat settings, CABAC : Yes\r\nFormat settings, ReFrames : 5 frames\r\nCodec ID : V_MPEG4/ISO/AVC\r\nDuration : 48mn 4s\r\nBit rate : 802 Kbps\r\nWidth : 720 pixels\r\nHeight : 404 pixels\r\nDisplay aspect ratio : 16:9\r\nFrame rate mode : Constant\r\nFrame rate : 23.976 (24000/1001) fps\r\nColor space : YUV\r\nChroma subsampling : 4:2:0\r\nBit depth : 8 bits\r\nScan type : Progressive\r\nBits/(Pixel*Frame) : 0.115\r\nStream size : 276 MiB (87%)\r\nWriting library : x264 core 148 r2665 a01e339\r\nEncoding settings : cabac=1 / ref=5 / deblock=1:-3:-3 / analyse=0x3:0x113 / me=umh / subme=8 / psy=1 / psy_rd=1.00:0.00 / mixed_ref=1 / me_range=16 / chroma_me=1 / trellis=2 / 8x8dct=1 / cqm=0 / deadzone=21,11 / fast_pskip=0 / chroma_qp_offset=-2 / threads=12 / lookahead_threads=2 / sliced_threads=0 / nr=0 / decimate=1 / interlaced=0 / bluray_compat=0 / constrained_intra=0 / bframes=3 / b_pyramid=2 / b_adapt=2 / b_bias=0 / direct=3 / weightb=1 / open_gop=0 / weightp=2 / keyint=250 / keyint_min=23 / scenecut=40 / intra_refresh=0 / rc_lookahead=50 / rc=crf / mbtree=1 / crf=19.0 / qcomp=0.60 / qpmin=0 / qpmax=69 / qpstep=4 / ip_ratio=1.40 / aq=3:0.80\r\nDefault : Yes\r\nForced : No\r\nColor range : Limited\r\nMatrix coefficients : BT.709\r\n\r\nAudio\r\nID : 2\r\nFormat : AAC\r\nFormat/Info : Advanced Audio Codec\r\nFormat profile : LC\r\nCodec ID : A_AAC\r\nDuration : 48mn 4s\r\nBit rate : 122 Kbps\r\nChannel(s) : 2 channels\r\nChannel positions : Front: L R\r\nSampling rate : 48.0 KHz\r\nFrame rate : 46.875 fps (1024 spf)\r\nCompression mode : Lossy\r\nStream size : 42.0 MiB (13%)\r\nDefault : Yes\r\nForced : No\r\n\r\nText #1\r\nID : 3\r\nFormat : UTF-8\r\nCodec ID : S_TEXT/UTF8\r\nCodec ID/Info : UTF-8 Plain Text\r\nDuration : 46mn 44s\r\nBit rate : 75 bps\r\nCount of elements : 744\r\nStream size : 25.7 KiB (0%)\r\nTitle : English\r\nLanguage : English\r\nDefault : Yes\r\nForced : No\r\n\r\nText #2\r\nID : 4\r\nFormat : UTF-8\r\nCodec ID : S_TEXT/UTF8\r\nCodec ID/Info : UTF-8 Plain Text\r\nDuration : 46mn 34s\r\nBit rate : 52 bps\r\nCount of elements : 472\r\nStream size : 18.0 KiB (0%)\r\nTitle : Dutch\r\nLanguage : Dutch\r\nDefault : No\r\nForced : No\r\n\r\nText #3\r\nID : 5\r\nFormat : UTF-8\r\nCodec ID : S_TEXT/UTF8\r\nCodec ID/Info : UTF-8 Plain Text\r\nDuration : 47mn 40s\r\nBit rate : 59 bps\r\nCount of elements : 600\r\nStream size : 20.7 KiB (0%)\r\nTitle : French\r\nLanguage : French\r\nDefault : No\r\nForced : No\r\n\r\nText #4\r\nID : 6\r\nFormat : UTF-8\r\nCodec ID : S_TEXT/UTF8\r\nCodec ID/Info : UTF-8 Plain Text\r\nDuration : 46mn 34s\r\nBit rate : 58 bps\r\nCount of elements : 597\r\nStream size : 20.1 KiB (0%)\r\nTitle : Italian\r\nLanguage : Italian\r\nDefault : No\r\nForced : No\r\n\r\nText #5\r\nID : 7\r\nFormat : UTF-8\r\nCodec ID : S_TEXT/UTF8\r\nCodec ID/Info : UTF-8 Plain Text\r\nDuration : 44mn 36s\r\nBit rate : 62 bps\r\nCount of elements : 601\r\nStream size : 20.3 KiB (0%)\r\nTitle : Portuguese\r\nLanguage : Portuguese\r\nDefault : No\r\nForced : No","torrent":{"xt":"urn:btih:2156b84554275b4b1e2282e74cfeb6387d4f3e57","amp;dn":"Marvels.Daredevil.S02E01.WEBRip.x264-FLEET","amp;tr":["udp%3A%2F%2Ftracker.leechers-paradise.org%3A6969","udp%3A%2F%2Fzer0day.ch%3A1337","udp%3A%2F%2Fopen.demonii.com%3A1337","udp%3A%2F%2Ftracker.coppersurfer.tk%3A6969","udp%3A%2F%2Fexodus.desync.com%3A6969"],"infoHash":"2156b84554275b4b1e2282e74cfeb6387d4f3e57","infoHashBuffer":{"type":"Buffer","data":[33,86,184,69,84,39,91,75,30,34,130,231,76,254,182,56,125,79,62,87]},"announce":[],"urlList":[]}}